<svg width="20" height="20" viewBox="0 0 20 20" fill="none" xmlns="http://www.w3.org/2000/svg">
<g id="logo">
<path id="Shape" d="M5 10C2.243 10 0 7.757 0 5C0 2.24275 2.243 0 5 0C7.758 0 10 2.24275 10 5C10 7.757 7.758 10 5 10Z" fill="white"/>
<path id="Shape_2" d="M14.1667 6.69275L17.5 12.4073V2.5H11.176C11.49 3.27325 11.6667 4.11625 11.6667 5C11.6667 8.67675 8.67675 11.6667 5 11.6667C4.11625 11.6667 3.27325 11.4893 2.5 11.175V17.5H7.862L14.1667 6.69275Z" fill="#A1A9B5"/>
<path id="Shape_3" d="M14.1668 10L8.33325 20H20L14.1668 10Z" fill="#6C7988"/>
</g>
</svg>
